<svg xmlns="http://www.w3.org/2000/svg" viewBox="0 0 900 1200" fill="none">
  <defs>
    <linearGradient id="bg" x1="0" y1="0" x2="1" y2="1">
      <stop offset="0" stop-color="#7c3aed"/>
      <stop offset="0.5" stop-color="#db2777"/>
      <stop offset="1" stop-color="#09090b"/>
    </linearGradient>
    <radialGradient id="glow" cx="0.5" cy="0.2" r="0.7">
      <stop offset="0" stop-color="#bef264" stop-opacity="0.95"/>
      <stop offset="1" stop-color="#bef264" stop-opacity="0"/>
    </radialGradient>
  </defs>
  <rect width="900" height="1200" rx="72" fill="url(#bg)"/>
  <circle cx="720" cy="220" r="220" fill="url(#glow)"/>
  <rect x="84" y="118" width="220" height="56" rx="28" fill="rgba(255,255,255,0.14)"/>
  <rect x="84" y="1020" width="580" height="58" rx="29" fill="rgba(255,255,255,0.16)"/>
  <rect x="84" y="1096" width="420" height="28" rx="14" fill="rgba(255,255,255,0.12)"/>
  <path d="M112 808C190 706 296 626 434 590C560 558 678 588 802 684" stroke="#bef264" stroke-width="24" stroke-linecap="round"/>
  <path d="M118 872C222 816 334 774 468 770C590 766 696 792 808 856" stroke="#f9a8d4" stroke-width="16" stroke-linecap="round" opacity="0.92"/>
  <text x="84" y="304" fill="#ffffff" font-family="Arial, Helvetica, sans-serif" font-size="96" font-weight="900" letter-spacing="-4">LOVE</text>
  <text x="84" y="410" fill="#bef264" font-family="Arial, Helvetica, sans-serif" font-size="96" font-weight="900" letter-spacing="-4">WRAPPED</text>
  <text x="84" y="488" fill="#ffffff" opacity="0.75" font-family="Arial, Helvetica, sans-serif" font-size="30" font-weight="700" letter-spacing="6">2026</text>
</svg>
